<svg xmlns="http://www.w3.org/2000/svg" xmlns:xlink="http://www.w3.org/1999/xlink" xmlns:inkscape="http://www.inkscape.org/namespaces/inkscape" version="1.1" width="20" height="20" viewBox="0 0 20 20">
<defs>
<clipPath id="clip_1">
<path transform="matrix(1,0,0,-1,0,20)" d="M0 20H20V0H0Z"/>
</clipPath>
</defs>
<g inkscape:groupmode="layer" inkscape:label="Layer 1">
<g clip-path="url(#clip_1)">
<path transform="matrix(1,0,0,-1,14.6841,8.3315)" d="M0 0C-.879-4.922-3.592-8.383-4.684-9.429-5.776-8.383-8.489-4.922-9.368 0-9.708 1.9-9.364 3.58-8.402 4.729-7.541 5.758-6.255 6.302-4.684 6.302-3.113 6.302-1.827 5.758-.966 4.729-.004 3.58 .339 1.9 0 0M.424 5.893C-.775 7.326-2.589 8.115-4.684 8.115-6.779 8.115-8.593 7.326-9.792 5.893-11.105 4.325-11.588 2.119-11.153-.318-10.523-3.843-9.063-6.572-7.949-8.241-7.243-9.299-6.619-10.021-6.22-10.441-5.335-11.374-4.976-11.452-4.684-11.452-4.392-11.452-4.033-11.374-3.148-10.441-2.749-10.021-2.125-9.299-1.419-8.241-.305-6.573 1.156-3.843 1.785-.318 2.22 2.12 1.737 4.326 .424 5.893" fill="#4f2e3c"/>
<path transform="matrix(1,0,0,-1,10.8203,6.1035006)" d="M0 0C0-.41-.333-.744-.744-.744-1.153-.744-1.487-.41-1.487 0-1.487 .41-1.153 .743-.744 .743-.333 .743 0 .41 0 0M-.744 2.557C-2.153 2.557-3.3 1.41-3.3 0-3.3-1.41-2.153-2.557-.744-2.557 .666-2.557 1.813-1.41 1.813 0 1.813 1.41 .666 2.557-.744 2.557" fill="#4f2e3c"/>
</g>
</g>
</svg>
