<svg xmlns="http://www.w3.org/2000/svg" xmlns:xlink="http://www.w3.org/1999/xlink" xmlns:inkscape="http://www.inkscape.org/namespaces/inkscape" version="1.1" width="20" height="20" viewBox="0 0 20 20">
<defs>
<clipPath id="clip_1">
<path transform="matrix(1,0,0,-1,0,20)" d="M0 20H20V0H0Z"/>
</clipPath>
</defs>
<g inkscape:groupmode="layer" inkscape:label="Layer 1">
<g clip-path="url(#clip_1)">
<path transform="matrix(1,0,0,-1,17.8145,12.003901)" d="M0 0H-10.853L-8.59-2.264C-7.807-3.047-7.807-4.315-8.59-5.099-9.372-5.881-10.641-5.881-11.424-5.098L-17.046 .524C-17.422 .9-17.633 1.41-17.633 1.941V2.065C-17.633 2.598-17.422 3.107-17.046 3.483L-11.424 9.105C-11.032 9.497-10.52 9.693-10.007 9.693-9.494 9.693-8.981 9.497-8.59 9.106-7.807 8.323-7.807 7.054-8.59 6.271L-10.853 4.008H0C1.106 4.008 2.004 3.111 2.004 2.004 2.004 .896 1.106 0 0 0" fill="#4f2e3c"/>
</g>
</g>
</svg>
